<?xml version="1.0" encoding="UTF-8"?> <svg xmlns="http://www.w3.org/2000/svg" id="Layer_1" data-name="Layer 1" width="350" height="350" viewBox="0 0 350 350"><defs><style>.cls-1{fill:#58595b;}.cls-2{fill:#6dcef5;}.cls-3{fill:#00adee;}.cls-4{fill:#fff;}.cls-5{fill:#231f20;}.cls-6{fill:#0076a2;opacity:0.5;isolation:isolate;}</style></defs><title>Untitled-3</title><polygon class="cls-1" points="298.82 253.75 106.92 302.87 112.31 322.14 274.58 294.58 298.82 253.75"></polygon><polygon class="cls-1" points="330.74 135.63 28.17 230.13 51.59 277.79 317.89 202.56 330.74 135.63"></polygon><polygon class="cls-2" points="175.1 30.14 43.72 74.91 43.72 214.58 79.98 284.63 175.1 327.94 175.1 30.14"></polygon><polygon class="cls-3" points="175.1 30.14 306.49 74.91 306.49 214.58 270.43 284.63 175.1 327.94 175.1 30.14"></polygon><path class="cls-4" d="M175.1,319l-.41-.2L85.58,278.21l-.21-.21L51.8,212.3v-131l.62-.21L175.31,39.26h.21l123.1,42.07V212.72l-33.78,65.69-.21.21ZM86.82,277l88.28,40.21L263.39,277,297,211.89V82.57L175.1,40.92,53.25,82.57V212.1Z"></path><rect class="cls-5" x="228.57" y="105.58" width="23.63" height="2.28"></rect><rect class="cls-5" x="98.01" y="105.58" width="23.63" height="2.28"></rect><path class="cls-5" d="M150.24,101.43a16.45,16.45,0,0,0-4.36-.83c-1.24,0-2.9.42-2.9,2.08,0,2.9,8.29,1,8.29,7.46,0,4.14-3.94,5.8-7.87,5.8a15.49,15.49,0,0,1-5.39-.83l.21-3.94a9.59,9.59,0,0,0,4.76,1.25c1.25,0,3.11-.42,3.11-2.28,0-3.53-8.29-1-8.29-7.67,0-3.94,3.52-5.6,7.25-5.6a21.15,21.15,0,0,1,5.19.62Z"></path><rect class="cls-5" x="172.82" y="97.7" width="4.77" height="18.03"></rect><path class="cls-5" d="M208.05,101.43a16.3,16.3,0,0,0-4.35-.83c-1.24,0-2.9.42-2.9,2.08,0,2.9,8.29,1,8.29,7.46,0,4.14-3.94,5.8-7.87,5.8a15.49,15.49,0,0,1-5.39-.83l.2-3.94a9.66,9.66,0,0,0,4.77,1.25c1.24,0,3.11-.42,3.11-2.28,0-3.53-8.5-1-8.5-7.67,0-3.94,3.53-5.6,7.26-5.6a21.13,21.13,0,0,1,5.18.62Z"></path><polygon class="cls-5" points="163.29 105.78 170.13 97.7 164.53 97.7 158.73 104.75 158.73 104.75 158.73 87.96 153.76 89.41 153.76 115.53 158.73 115.53 158.73 106.82 158.73 106.82 164.95 115.53 170.96 115.53 163.29 105.78"></polygon><polygon class="cls-5" points="180.7 89.41 180.7 115.53 185.47 115.53 185.47 87.96 180.7 89.41"></polygon><polygon class="cls-5" points="188.37 89.41 188.37 89.41 188.37 115.53 193.13 115.53 193.13 87.96 188.37 89.41"></polygon><circle class="cls-5" cx="175.31" cy="90.86" r="2.69"></circle><path class="cls-5" d="M167.44,75.94l1.65-8.49-6.42-6,8.7-1,3.73-7.88,3.73,7.88,8.71,1-6.43,6,1.66,8.49-7.67-4.35Zm31.29,4.56,1-5.18-3.93-3.52,5.18-.62,2.28-4.77,2.28,4.77,5.18.62-3.94,3.52,1,5.18L203.29,78Zm-56.37,0,1-5.18-3.94-3.52,5.18-.62,2.28-4.77,2.28,4.77,5.18.62-3.94,3.52,1,5.18L146.92,78Z"></path><polygon class="cls-6" points="72.94 135.83 59.05 212.93 306.49 207.54 306.49 144.12 72.94 135.83"></polygon><polygon class="cls-6" points="79.98 284.63 81.02 285.25 242.46 297.48 270.43 284.63 284.32 257.69 55.73 237.79 79.98 284.63"></polygon><polygon class="cls-5" points="28.17 230.13 51.59 277.79 274.58 294.58 298.82 253.75 28.17 230.13"></polygon><polygon class="cls-5" points="37.7 123.61 19.26 202.56 317.89 202.56 330.74 135.63 37.7 123.61"></polygon><polygon class="cls-5" points="106.92 302.87 112.31 322.14 156.87 327.94 106.92 302.87"></polygon><path class="cls-4" d="M63.4,187.23V145.78H68v18.65H90.14V145.78H94.7v41.45H90.14V168.58H68v18.65Z"></path><path class="cls-4" d="M105.47,187.23V145.78h26.11v4.15H109.82v14.3h19.07v4.35H109.82v14.3h21.56V187Z"></path><path class="cls-4" d="M140.7,187.23V145.78H156a15.36,15.36,0,0,1,10.36,3.11,11.31,11.31,0,0,1,3.73,8.91,12.2,12.2,0,0,1-.83,4.77,8.7,8.7,0,0,1-1.86,3.31A22.87,22.87,0,0,1,165,168l-2.49,1.24a5.93,5.93,0,0,1-1.86.41L172,187h-5.39l-11-16.58H145.05v16.79Zm4.56-20.93h10.36a22.3,22.3,0,0,0,5.18-.62,6.37,6.37,0,0,0,3.11-2.08,7.07,7.07,0,0,0,1.25-2.48,13.88,13.88,0,0,0,0-5.81,5.72,5.72,0,0,0-1.25-2.48,6.29,6.29,0,0,0-3.11-2.07,14.83,14.83,0,0,0-5.18-.63H145.26Z"></path><path class="cls-4" d="M177.38,166.3c0-14.09,6.43-21.35,19.28-21.35s19.27,7.05,19.27,21.35c0,14.09-6.42,21.34-19.27,21.34C183.6,187.64,177.18,180.6,177.38,166.3Zm7.88-12.85c-2.49,2.69-3.52,7.05-3.52,12.85s1.24,10.15,3.52,12.85c2.49,2.69,6.22,4.14,11.19,4.14,5.18,0,8.91-1.45,11.19-4.14s3.52-7.05,3.52-12.85-1.24-10.16-3.52-12.85-6-4.15-11.19-4.15C191.48,149.3,187.75,150.76,185.26,153.45Z"></path><path class="cls-4" d="M224.84,187.23V145.78H251v4.15H229.19v14.3h19.07v4.35H229.19v14.3H251V187Z"></path><path class="cls-4" d="M258.41,156.77a10.85,10.85,0,0,1,3.53-8.09c2.28-2.28,6-3.31,10.77-3.31a22.51,22.51,0,0,1,10.36,2.48v4.56a21.08,21.08,0,0,0-9.94-2.69,12.45,12.45,0,0,0-7.67,1.86,6.48,6.48,0,0,0-2.69,5.18,4.44,4.44,0,0,0,1.65,3.53,10.69,10.69,0,0,0,4.36,2.07,33,33,0,0,1,5.38,1.87,41.53,41.53,0,0,1,5.39,2.28,10.7,10.7,0,0,1,4.15,3.93,10,10,0,0,1,1.65,6.43,9.13,9.13,0,0,1-3.93,8.08,18,18,0,0,1-10.78,2.9,27.33,27.33,0,0,1-12.23-2.9v-4.77a20.29,20.29,0,0,0,12,3.32c7.05,0,10.57-2.28,10.57-6.63a8.28,8.28,0,0,0-1.66-4.77,10.16,10.16,0,0,0-4.14-2.69l-5.39-1.87a32.41,32.41,0,0,1-5.39-2.07,13,13,0,0,1-4.35-3.11A11,11,0,0,1,258.41,156.77Z"></path></svg> 